<?xml version="1.0"?>
<svg xmlns="http://www.w3.org/2000/svg" viewBox="0 0 100 100" role="img" aria-label="Seefar favicon — S on Seefar Blue">
  
  <rect width="100" height="100" rx="8" ry="8" fill="#0086CC"></rect>
  <g transform="translate(38 34) scale(1.0)">
    <g>
      
      <path fill="#FFFFFF" d="M12.29,14.47c-4.4-1.65-8.55-3.2-8.55-5.8,0-3.22,3.49-5.85,7.78-5.85s7.78,2.62,7.78,5.85v.34h2.82v-.34C22.13,3.89,17.37,0,11.53,0S.92,3.89.92,8.67c.03,4.62,5.44,6.64,10.69,8.6,4.43,1.66,8.62,3.22,8.62,5.91,0,3.11-4.07,5.85-8.7,5.85s-8.7-2.62-8.7-5.85v-.79H0v.79c0,4.78,5.17,8.67,11.53,8.67s11.52-3.97,11.52-8.66c.03-4.68-5.46-6.73-10.76-8.72"></path>
      
      <polygon fill="#F7941D" points=".34 15.22 .34 20.56 5.28 17.89 .34 15.22"></polygon>
      <polygon fill="#F7941D" points="21.78 10.47 21.78 15.81 16.84 13.14 21.78 10.47"></polygon>
    </g>
  </g>
</svg>