<?xml version="1.0"?>
<svg xmlns="http://www.w3.org/2000/svg" viewBox="0 0 167.12 31.84" role="img" aria-label="Seefar">
  
  <g>
    
    <path fill="#F7941D" d="M125.09.85c-.21-.5-.72-.82-1.29-.82s-1.07.32-1.28.81l-13.6,31h3.14l11.75-26.92,11.75,26.92h3.14L125.09.85Z"></path>
    
    <path fill="#0086CC" d="M12.29,14.47c-4.4-1.65-8.55-3.2-8.55-5.8,0-3.22,3.49-5.85,7.78-5.85s7.78,2.62,7.78,5.85v.34h2.82v-.34C22.13,3.89,17.37,0,11.53,0S.92,3.89.92,8.67c.03,4.62,5.44,6.64,10.69,8.6,4.43,1.66,8.62,3.22,8.62,5.91,0,3.11-4.07,5.85-8.7,5.85s-8.7-2.62-8.7-5.85v-.79H0v.79c0,4.78,5.17,8.67,11.53,8.67s11.52-3.97,11.52-8.66c.03-4.68-5.46-6.73-10.76-8.72"></path>
    
    <path fill="#0086CC" d="M53.15,2.82V0h-21.64C30.71,0,30.1.61,30.1,1.41v29.02c0,.8.61,1.41,1.41,1.41h21.64v-2.82h-20.23v-11.69h14.38v-2.82h-14.38V2.82h20.23Z"></path>
    
    <path fill="#0086CC" d="M82.67,2.82V0h-21.64c-.8,0-1.41.61-1.41,1.41v29.02c0,.8.61,1.41,1.41,1.41h21.64v-2.82h-20.23v-11.69h14.38v-2.82h-14.38V2.82h20.23Z"></path>
    
    <path fill="#F7941D" d="M109.55,2.82V0h-19c-.8,0-1.41.61-1.41,1.41v30.43h2.82v-14.51h12.78v-2.82h-12.78V2.82h17.59Z"></path>
    
    <path fill="#F7941D" d="M166.56,30.02h0c-2.52-8.09-4.33-11.21-6.32-13.2,3.78-1.23,6.36-4.49,6.36-8.1C166.6,3.91,162.24,0,156.88,0h-12.75c-.8,0-1.46.65-1.46,1.45v30.39h2.82v-14.51h10.95c2.5,1.73,4.38,3.69,7.39,13.55l.41.96h2.88l-.56-1.83ZM145.5,14.51V2.82h11.39c3.81,0,6.9,2.64,6.9,5.89s-3.08,5.8-6.86,5.8h-11.43Z"></path>
    
    <polygon fill="#F7941D" points=".34 15.22 .34 20.56 5.28 17.89 .34 15.22"></polygon>
    <polygon fill="#F7941D" points="21.78 10.47 21.78 15.81 16.84 13.14 21.78 10.47"></polygon>
  </g>
</svg>